<svg width="347.88359374999993" height="347.88359374999993" viewBox="0 0 312.5 312.5" class="looka-1j8o68f"><defs id="SvgjsDefs1315"></defs><g id="SvgjsG1316" featurekey="rootContainer" transform="matrix(6.25,0,0,6.25,0,0)" fill="#000000"><path xmlns="http://www.w3.org/2000/svg" d="M50 25c0 8.88-3.62 15.67-10.6 20.11C35.53 47.58 29.93 50 25 50c-8.63 0-14.24-1.37-18.73-8C3.57 38 0 30.2 0 25c0-6.85 1.76-14.06 6.22-18.58S18.04 0 25 0c9.5 0 16.77 5.3 21 13.11 1.88 3.53 4 7.58 4 11.89z"></path></g><g id="SvgjsG1317" featurekey="symbolFeature-0" transform="matrix(3.289473684210526,0,0,3.289473684210526,116.77631578947368,92)" fill="#ffffff"><g xmlns="http://www.w3.org/2000/svg"><g><path d="M11,24H3c-0.276,0-0.5-0.224-0.5-0.5v-2C2.5,21.224,2.724,21,3,21h8c0.276,0,0.5,0.224,0.5,0.5v2    C11.5,23.776,11.276,24,11,24z M3.5,23h7v-1h-7V23z"></path></g><g><path d="M15,24h-4c-0.276,0-0.5-0.224-0.5-0.5V22H9c-0.276,0-0.5-0.224-0.5-0.5v-2C8.5,19.224,8.724,19,9,19h4    c0.276,0,0.5,0.224,0.5,0.5V21H15c0.276,0,0.5,0.224,0.5,0.5v2C15.5,23.776,15.276,24,15,24z M11.5,23h3v-1H13    c-0.276,0-0.5-0.224-0.5-0.5V20h-3v1H11c0.276,0,0.5,0.224,0.5,0.5V23z"></path></g><g><path d="M7,22H3c-0.276,0-0.5-0.224-0.5-0.5v-4C2.5,17.224,2.724,17,3,17h4c0.276,0,0.5,0.224,0.5,0.5v4C7.5,21.776,7.276,22,7,22    z M3.5,21h3v-3h-3V21z"></path></g><g><path d="M17,7h-4c-0.276,0-0.5-0.224-0.5-0.5v-6C12.5,0.224,12.724,0,13,0h2c0.276,0,0.5,0.224,0.5,0.5V4H17    c0.276,0,0.5,0.224,0.5,0.5v2C17.5,6.776,17.276,7,17,7z M13.5,6h3V5H15c-0.276,0-0.5-0.224-0.5-0.5V1h-1V6z"></path></g><g><path d="M21,24h-6c-0.276,0-0.5-0.224-0.5-0.5v-2c0-0.276,0.224-0.5,0.5-0.5h1.5v-1.5c0-0.276,0.224-0.5,0.5-0.5h2    c0.276,0,0.5,0.224,0.5,0.5V21H21c0.276,0,0.5,0.224,0.5,0.5v2C21.5,23.776,21.276,24,21,24z M15.5,23h5v-1H19    c-0.276,0-0.5-0.224-0.5-0.5V20h-1v1.5c0,0.276-0.224,0.5-0.5,0.5h-1.5V23z"></path></g><g><path d="M9,22H7c-0.276,0-0.5-0.224-0.5-0.5v-6C6.5,15.224,6.724,15,7,15h2c0.276,0,0.5,0.224,0.5,0.5V17H11    c0.276,0,0.5,0.224,0.5,0.5v2c0,0.276-0.224,0.5-0.5,0.5H9.5v1.5C9.5,21.776,9.276,22,9,22z M7.5,21h1v-1.5    C8.5,19.224,8.724,19,9,19h1.5v-1H9c-0.276,0-0.5-0.224-0.5-0.5V16h-1V21z"></path></g></g></g><g id="SvgjsG1318" featurekey="nameFeature-0" transform="matrix(0.8775729729592203,0,0,0.8775729729592203,55.9568075620033,183.5418566528149)" fill="#ffffff"><path d="M10.76 18.76 l1.68 -0.56 c0.08 -2.24 0.12 -6.4 -0.76 -6.96 c-1.32 -0.88 -6.76 0.04 -8.04 1.4 c-1.24 1.32 -0.8 12.32 0.08 13 s2.12 1.16 3.12 1.68 c1.56 0.84 2.72 1.88 2.76 2.92 c0.12 1.84 0 4.64 -0.84 5.44 c-1.24 1.16 -3.44 0.64 -3.72 -0.16 c-0.32 -0.88 -0.32 -1.88 -0.32 -2.8 l-2.44 0.16 c-0.2 3.24 0.2 5.88 0.76 6.48 c0.96 1 8.12 -0.36 8.68 -1.44 c1.12 -2.12 0.92 -10.36 0.44 -11 c-0.56 -0.76 -2.04 -1.4 -2.84 -1.76 c-1.4 -0.6 -2.68 -1.32 -3.08 -2.08 c-0.84 -1.52 -0.52 -4.44 -0.2 -6.16 s3.44 -3.48 4.28 -0.72 c0.2 0.72 0.36 1.56 0.44 2.56 z M14.48 19.32 l-5.4 2 c0 -2.48 -0.2 -3.68 -0.36 -4.56 c-0.04 -0.24 -0.48 -0.2 -0.52 0 c-0.2 1 -0.56 4.32 -0.08 5.28 c0.24 0.48 1.12 0.8 2 1.16 c1 0.44 2.24 0.84 3.12 1.52 c1.92 1.48 0.84 12 -0.36 14.2 c-1.16 2.2 -9.76 4.36 -11.68 2.32 c-1.32 -1.4 -1.36 -5.52 -0.84 -9.84 l6.16 -0.72 c-0.04 1.72 -0.08 2.36 -0.08 2.96 c0 0.92 0.36 1.04 0.64 0.76 c0.6 -0.6 0.4 -2.64 0.36 -3.96 c0 -0.56 -0.84 -0.84 -1.64 -1.24 c-1.04 -0.56 -2.36 -1.04 -3.28 -1.76 c-1.92 -1.52 -1.68 -14.16 0.24 -16.28 c1.88 -2.08 8.24 -3.52 10.44 -2.08 c1.16 0.76 1.52 7.12 1.28 10.24 z M29.28 38.68 c0.4 -6.32 0.44 -17.84 -0.08 -26.4 c-0.96 0.04 -2.08 0.2 -2.96 0.44 c0.16 2.28 0.36 7.48 0.12 9.36 c-0.16 1.28 -1.64 1.88 -2.4 2.04 c-1.44 0.32 -2.72 -0.32 -2.8 -1.28 c-0.2 -2.04 -0.16 -8.04 -0.08 -11.24 c-0.76 0 -1.64 0.12 -2.52 0.28 c-0.6 8.36 -0.44 21.24 -0.32 27.92 c1 0.04 2.04 -0.12 2.96 -0.4 c-0.04 -2.52 0 -4.76 0.08 -8.56 c0 -0.84 1.16 -1.76 2.52 -1.96 c1.48 -0.2 2.76 0.52 2.8 1.6 c0.08 1.76 0.24 6 0.16 8.36 c0.84 0 1.68 0 2.52 -0.16 z M31.48 9.879999999999999 c0.32 10.04 -0.24 23.16 -1 30.44 c-2.52 0.8 -3.88 0.72 -6.44 0.72 c0.4 -2.72 0.4 -7.4 0.36 -9.6 c0 -0.92 -1.24 -0.32 -1.28 0.36 c-0.24 4.2 -0.4 5.72 -0.44 9.28 c-2.24 1 -4.16 1.4 -6.84 1.08 c0.16 -7.56 0.44 -22.32 1.56 -32 c2.28 -0.64 4.08 -0.84 6.32 -0.72 c-0.24 3.68 -0.56 10.08 -0.44 12.36 c0.04 0.84 1.12 -0.08 1.2 -0.48 c0.32 -2 0.24 -8.2 0.08 -10.32 c1.96 -0.76 4.44 -1.36 6.92 -1.12 z M41.00000000000001 19.12 c-0.04 -0.6 -0.76 -0.68 -0.84 0.24 c-0.32 3.76 -0.92 11.72 -0.52 13.96 c0.12 0.72 1.04 0.32 1.16 -0.56 c0.44 -3.04 0.44 -11.16 0.2 -13.64 z M43.080000000000005 32.88 c-0.16 1.48 -1.16 2.52 -2.28 2.84 c-1.2 0.32 -2.52 -0.24 -2.84 -1.76 c-0.56 -2.52 -0.2 -11.08 -0.04 -14.6 c0.08 -1.6 0.96 -2.68 2.16 -2.96 c1.12 -0.28 2.44 0.36 2.64 1.8 c0.36 2.56 0.72 11.52 0.36 14.68 z M45.56 38.24 c1 -1.8 0.88 -23.44 -0.88 -25.76 c-1.48 -1.96 -8.68 -0.12 -9.24 1.76 c-0.72 2.44 -1.08 22.48 -0.12 24.56 c0.68 1.48 9.04 1.56 10.24 -0.56 z M46.68000000000001 10.760000000000002 c2.16 3.04 1.36 26.04 -0.04 28.48 c-1.84 3.28 -12.08 4.28 -13.48 0.92 c-1.16 -2.76 0.08 -23.76 0.92 -26.48 c1.04 -3.32 10.16 -6.36 12.6 -2.92 z M59.80000000000001 38.96 c0.08 -1.2 -0.04 -2.56 -0.2 -3.72 c-2.88 0.4 -4.44 0 -4.84 -0.56 c-0.28 -0.4 -0.88 -4.48 -0.88 -8.64 c0 -4.12 0.44 -9 1.16 -9.92 c0.84 -1.12 2.68 -1.4 4.64 -1.2 c0.04 -1.12 0.08 -2.48 0 -3.52 c-3.88 -0.52 -5.64 -0.28 -6.28 0.28 c-1.2 1.04 -2.52 10.48 -2.4 14.44 c0.08 3.52 0.96 12.68 2.04 13.2 c0.92 0.44 3.88 0.32 6.76 -0.36 z M61.92000000000001 9.120000000000001 c0.2 2.28 0.08 5.16 -0.24 7.8 c-3.4 -0.6 -4.56 -0.08 -4.76 0.2 s-0.92 4.32 -1.08 8.92 c-0.16 3.64 0 6.88 0.24 7.2 c0.28 0.4 1.48 0.36 4.76 -0.36 c0.4 2.64 0.52 5.08 0.12 7.76 c-3.68 1.16 -7.6 1.72 -9.28 0.92 c-1.2 -0.56 -2.6 -11.08 -2.56 -15.16 c0.04 -3.72 1.52 -14.48 3.56 -16.4 c1.52 -1.4 4.48 -1.44 9.24 -0.88 z M76.64 36.56 c-1.28 -4.28 -4.4 -12.12 -6.36 -15.56 c2 -1.52 4 -3.44 5.04 -4.76 c-0.32 -1.28 -0.84 -2.6 -1.28 -3.56 c-1.2 1.24 -2.72 2.72 -4.88 4.32 c-0.56 0.4 -1.32 0.44 -1.28 -0.6 l0.16 -5.16 c-0.92 -0.08 -1.88 -0.12 -2.68 -0.04 c0.24 7.36 -0.04 21.12 -0.36 27.44 c1.08 -0.04 2.2 -0.24 3 -0.44 c0.12 -2.36 0.2 -5.88 0 -9.04 c-0.04 -0.88 1.28 -1.64 2 -0.4 c1.6 2.76 2.96 7.32 3.92 10.56 c1.04 -0.88 2.08 -1.84 2.72 -2.76 z M78.24000000000001 36.8 c-1.32 2.12 -3.24 3.96 -6.08 6.2 c-0.6 -2.8 -1.48 -5.92 -2.28 -8.48 c-0.12 1.92 -0.28 3.96 -0.44 5.56 c-1.8 0.64 -4.04 1.08 -6.92 1.08 c0.64 -7.04 1.52 -23.24 1.48 -31.72 c2.2 -0.48 4.2 -0.56 6.68 -0.28 l-0.28 4.52 c1.28 -1.16 2.52 -2.56 4.52 -4.84 c1.24 2.12 2.24 4.68 2.76 7.4 c-1.16 1.68 -3.16 3.8 -4.68 5.12 c1.6 3.48 4.16 11.04 5.24 15.44 z M90.68 15.16 c0.04 -1 -0.04 -2.32 -0.24 -3.4 c-2.24 0 -5.8 0.16 -8.28 0.44 c-0.44 6.44 -0.8 18.96 -0.32 27.56 c3.32 0.2 6.52 -0.48 8.36 -1.2 c0.08 -0.96 0.04 -1.92 -0.08 -2.8 c-1.52 0.2 -3.88 0.4 -5.32 0.36 c-0.28 -2.2 -0.32 -5.2 -0.04 -7.6 l5.6 -2.04 c0.08 -0.8 0 -1.72 -0.12 -2.48 l-5.76 0.6 c-0.08 -3.24 0.24 -6.04 0.52 -8.44 c1.84 -0.48 4.2 -0.8 5.68 -1 z M92.68 16.56 c-1.76 0.24 -4.04 0.64 -5.6 1.04 c-0.2 1.36 -0.44 3.12 -0.52 4.72 l5.24 -0.72 c0.52 2 0.56 4.12 0.16 6.2 l-5.52 2.24 c-0.12 1.32 -0.2 3 -0.16 4.24 c1.32 -0.12 3.4 -0.44 5.04 -1 c0.36 2.56 0.48 4.28 0.12 6.76 c-2.68 1.32 -6.88 2.48 -11.92 2.08 c-0.32 -10.04 0.68 -24.44 1.44 -31.8 c3.56 -0.64 8.48 -1.04 11.52 -1.08 c0.56 2.4 0.56 5.08 0.2 7.32 z M101.44 16.68 c-0.08 -0.32 -0.48 -0.4 -0.52 -0.04 c-0.16 1.52 -0.44 5.24 -0.36 6.64 c0.04 0.44 0.76 -0.08 0.84 -0.64 c0.28 -1.96 0.32 -4.84 0.04 -5.96 z M103.28 22.96 c-0.16 1.4 -1.28 2.2 -2.24 2.44 c-0.76 0.2 -2.44 0.08 -2.6 -1.52 c-0.12 -1.44 0 -5.68 0.12 -7.24 c0.16 -1.96 3.56 -3.72 4.44 -0.76 c0.44 1.48 0.52 5.04 0.28 7.08 z M107.36 38.32 c-0.64 -3.08 -1.76 -8.32 -2.68 -11.2 c1.64 -1.96 1.72 -2.36 1.8 -3.92 c0.08 -2.36 0 -10.72 -1.04 -11.64 c-0.6 -0.56 -6.8 -0.88 -9.92 0.8 c0.16 5.72 0.6 17.36 0.2 26.88 c0.84 -0.04 1.68 -0.12 2.4 -0.4 c0.2 -2.24 0.44 -4.96 0.4 -7.16 c0 -0.92 0.44 -1.72 1.16 -2.12 c0.84 -0.44 1.88 -0.2 2.36 0.84 c0.92 2.04 2.28 6.4 3.08 9.4 c0.84 -0.4 1.44 -0.8 2.24 -1.48 z M108.92 39.04 c-1.96 1.84 -2.88 2.44 -5.8 3.68 c-0.72 -3.6 -1.92 -8.16 -2.8 -10.64 c-0.08 2.48 -0.4 5.48 -0.76 8.32 c-1.76 1.16 -3.56 1.32 -6.32 1.44 c0.96 -11.28 0.92 -24.28 0.96 -30.6 c3.8 -2.76 11.56 -3.08 13.08 -1.68 c1.12 1.04 1.36 10.64 1.16 13.4 c-0.12 1.92 -0.32 2.68 -1.68 4.44 c0.72 2.84 1.6 8.2 2.16 11.64 z M116.88000000000001 10.68 c-1 -0.12 -2.16 0.08 -3 0.48 c-0.2 2.2 -0.36 5.52 -0.44 8.36 c0.68 0.08 1.28 0.04 2.04 -0.16 c0.08 -2.52 0.76 -6.2 1.4 -8.68 z M119.44000000000001 9 c-1.12 3.56 -2.12 8.52 -2.12 11.88 c-2.48 1.04 -3.84 1 -5.96 0.56 c0.16 -4.2 0.52 -8.56 0.92 -11.48 c2.04 -1.52 4.52 -1.8 7.16 -0.96 z M131.16 18.76 l1.68 -0.56 c0.08 -2.24 0.12 -6.4 -0.76 -6.96 c-1.32 -0.88 -6.76 0.04 -8.04 1.4 c-1.24 1.32 -0.8 12.32 0.08 13 s2.12 1.16 3.12 1.68 c1.56 0.84 2.72 1.88 2.76 2.92 c0.12 1.84 0 4.64 -0.84 5.44 c-1.24 1.16 -3.44 0.64 -3.72 -0.16 c-0.32 -0.88 -0.32 -1.88 -0.32 -2.8 l-2.44 0.16 c-0.2 3.24 0.2 5.88 0.76 6.48 c0.96 1 8.12 -0.36 8.68 -1.44 c1.12 -2.12 0.92 -10.36 0.44 -11 c-0.56 -0.76 -2.04 -1.4 -2.84 -1.76 c-1.4 -0.6 -2.68 -1.32 -3.08 -2.08 c-0.84 -1.52 -0.52 -4.44 -0.2 -6.16 s3.44 -3.48 4.28 -0.72 c0.2 0.72 0.36 1.56 0.44 2.56 z M134.88 19.32 l-5.4 2 c0 -2.48 -0.2 -3.68 -0.36 -4.56 c-0.04 -0.24 -0.48 -0.2 -0.52 0 c-0.2 1 -0.56 4.32 -0.08 5.28 c0.24 0.48 1.12 0.8 2 1.16 c1 0.44 2.24 0.84 3.12 1.52 c1.92 1.48 0.84 12 -0.36 14.2 c-1.16 2.2 -9.76 4.36 -11.68 2.32 c-1.32 -1.4 -1.36 -5.52 -0.84 -9.84 l6.16 -0.72 c-0.04 1.72 -0.08 2.36 -0.08 2.96 c0 0.92 0.36 1.04 0.64 0.76 c0.6 -0.6 0.4 -2.64 0.36 -3.96 c0 -0.56 -0.84 -0.84 -1.64 -1.24 c-1.04 -0.56 -2.36 -1.04 -3.28 -1.76 c-1.92 -1.52 -1.68 -14.16 0.24 -16.28 c1.88 -2.08 8.24 -3.52 10.44 -2.08 c1.16 0.76 1.52 7.12 1.28 10.24 z M153.24 16 l3.6 -0.64 c0.04 -1.24 0.04 -2.88 -0.12 -4.12 c-5 0.12 -8.32 0.6 -9.6 0.8 c-0.24 1.16 -0.36 3.28 -0.32 4.72 l3.56 -0.4 c-0.32 6.8 -0.44 17.08 -0.16 23.4 c1.04 0 1.84 -0.12 2.48 -0.44 c-0.2 -5.8 -0.08 -16.88 0.56 -23.32 z M158.84 16.68 l-3.56 0.76 c-0.72 6.16 -1.16 17.16 -1.12 23.08 c-1.88 1.6 -4 1.64 -6.4 1.6 c-0.08 -6.84 0.4 -17.24 0.84 -23.52 l-3.2 0.48 c-0.24 -2.6 0.04 -6.76 0.84 -8.88 c0 0 4.56 -1.12 12.6 -1.52 c0.36 2.48 0.36 5.52 0 8 z M171.08 15.16 c0.04 -1 -0.04 -2.32 -0.24 -3.4 c-2.24 0 -5.8 0.16 -8.28 0.44 c-0.44 6.44 -0.8 18.96 -0.32 27.56 c3.32 0.2 6.52 -0.48 8.36 -1.2 c0.08 -0.96 0.04 -1.92 -0.08 -2.8 c-1.52 0.2 -3.88 0.4 -5.32 0.36 c-0.28 -2.2 -0.32 -5.2 -0.04 -7.6 l5.6 -2.04 c0.08 -0.8 0 -1.72 -0.12 -2.48 l-5.76 0.6 c-0.08 -3.24 0.24 -6.04 0.52 -8.44 c1.84 -0.48 4.2 -0.8 5.68 -1 z M173.08 16.56 c-1.76 0.24 -4.04 0.64 -5.6 1.04 c-0.2 1.36 -0.44 3.12 -0.52 4.72 l5.24 -0.72 c0.52 2 0.56 4.12 0.16 6.2 l-5.52 2.24 c-0.12 1.32 -0.2 3 -0.16 4.24 c1.32 -0.12 3.4 -0.44 5.04 -1 c0.36 2.56 0.48 4.28 0.12 6.76 c-2.68 1.32 -6.88 2.48 -11.92 2.08 c-0.32 -10.04 0.68 -24.44 1.44 -31.8 c3.56 -0.64 8.48 -1.04 11.52 -1.08 c0.56 2.4 0.56 5.08 0.2 7.32 z M182.04 16 l3.6 -0.64 c0.04 -1.24 0.04 -2.88 -0.12 -4.12 c-5 0.12 -8.32 0.6 -9.6 0.8 c-0.24 1.16 -0.36 3.28 -0.32 4.72 l3.56 -0.4 c-0.32 6.8 -0.44 17.08 -0.16 23.4 c1.04 0 1.84 -0.12 2.48 -0.44 c-0.2 -5.8 -0.08 -16.88 0.56 -23.32 z M187.64 16.68 l-3.56 0.76 c-0.72 6.16 -1.16 17.16 -1.12 23.08 c-1.88 1.6 -4 1.64 -6.4 1.6 c-0.08 -6.84 0.4 -17.24 0.84 -23.52 l-3.2 0.48 c-0.24 -2.6 0.04 -6.76 0.84 -8.88 c0 0 4.56 -1.12 12.6 -1.52 c0.36 2.48 0.36 5.52 0 8 z M196.44 16.68 c-0.08 -0.32 -0.48 -0.4 -0.52 -0.04 c-0.16 1.52 -0.44 5.24 -0.36 6.64 c0.04 0.44 0.76 -0.08 0.84 -0.64 c0.28 -1.96 0.32 -4.84 0.04 -5.96 z M198.28 22.96 c-0.16 1.4 -1.28 2.2 -2.24 2.44 c-0.76 0.2 -2.44 0.08 -2.6 -1.52 c-0.12 -1.44 0 -5.68 0.12 -7.24 c0.16 -1.96 3.56 -3.72 4.44 -0.76 c0.44 1.48 0.52 5.04 0.28 7.08 z M202.35999999999999 38.32 c-0.64 -3.08 -1.76 -8.32 -2.68 -11.2 c1.64 -1.96 1.72 -2.36 1.8 -3.92 c0.08 -2.36 0 -10.72 -1.04 -11.64 c-0.6 -0.56 -6.8 -0.88 -9.92 0.8 c0.16 5.72 0.6 17.36 0.2 26.88 c0.84 -0.04 1.68 -0.12 2.4 -0.4 c0.2 -2.24 0.44 -4.96 0.4 -7.16 c0 -0.92 0.44 -1.72 1.16 -2.12 c0.84 -0.44 1.88 -0.2 2.36 0.84 c0.92 2.04 2.28 6.4 3.08 9.4 c0.84 -0.4 1.44 -0.8 2.24 -1.48 z M203.92 39.04 c-1.96 1.84 -2.88 2.44 -5.8 3.68 c-0.72 -3.6 -1.92 -8.16 -2.8 -10.64 c-0.08 2.48 -0.4 5.48 -0.76 8.32 c-1.76 1.16 -3.56 1.32 -6.32 1.44 c0.96 -11.28 0.92 -24.28 0.96 -30.6 c3.8 -2.76 11.56 -3.08 13.08 -1.68 c1.12 1.04 1.36 10.64 1.16 13.4 c-0.12 1.92 -0.32 2.68 -1.68 4.44 c0.72 2.84 1.6 8.2 2.16 11.64 z M210.27999999999997 38.28 c0.4 -6.32 0.44 -17.48 -0.08 -26 c-0.96 0.04 -2.12 0.2 -3 0.44 c0.32 6.6 0.52 18.92 0.52 25.72 c0.84 0 1.72 0 2.56 -0.16 z M212.55999999999997 10 c0.32 10.04 -0.24 22.76 -1 30.04 c-2.48 0.76 -3.8 0.72 -6.32 0.72 c0.32 -7.92 0.56 -22.08 0.44 -29.64 c1.92 -0.76 4.4 -1.36 6.88 -1.12 z M224.15999999999997 18.76 l1.68 -0.56 c0.08 -2.24 0.12 -6.4 -0.76 -6.96 c-1.32 -0.88 -6.76 0.04 -8.04 1.4 c-1.24 1.32 -0.8 12.32 0.08 13 s2.12 1.16 3.12 1.68 c1.56 0.84 2.72 1.88 2.76 2.92 c0.12 1.84 0 4.64 -0.84 5.44 c-1.24 1.16 -3.44 0.64 -3.72 -0.16 c-0.32 -0.88 -0.32 -1.88 -0.32 -2.8 l-2.44 0.16 c-0.2 3.24 0.2 5.88 0.76 6.48 c0.96 1 8.12 -0.36 8.68 -1.44 c1.12 -2.12 0.92 -10.36 0.44 -11 c-0.56 -0.76 -2.04 -1.4 -2.84 -1.76 c-1.4 -0.6 -2.68 -1.32 -3.08 -2.08 c-0.84 -1.52 -0.52 -4.44 -0.2 -6.16 s3.44 -3.48 4.28 -0.72 c0.2 0.72 0.36 1.56 0.44 2.56 z M227.87999999999997 19.32 l-5.4 2 c0 -2.48 -0.2 -3.68 -0.36 -4.56 c-0.04 -0.24 -0.48 -0.2 -0.52 0 c-0.2 1 -0.56 4.32 -0.08 5.28 c0.24 0.48 1.12 0.8 2 1.16 c1 0.44 2.24 0.84 3.12 1.52 c1.92 1.48 0.84 12 -0.36 14.2 c-1.16 2.2 -9.76 4.36 -11.68 2.32 c-1.32 -1.4 -1.36 -5.52 -0.84 -9.84 l6.16 -0.72 c-0.04 1.72 -0.08 2.36 -0.08 2.96 c0 0.92 0.36 1.04 0.64 0.76 c0.6 -0.6 0.4 -2.64 0.36 -3.96 c0 -0.56 -0.84 -0.84 -1.64 -1.24 c-1.04 -0.56 -2.36 -1.04 -3.28 -1.76 c-1.92 -1.52 -1.68 -14.16 0.24 -16.28 c1.88 -2.08 8.24 -3.52 10.44 -2.08 c1.16 0.76 1.52 7.12 1.28 10.24 z"></path></g></svg>